<?xml version="1.0" encoding="UTF-8"?>
<svg xmlns="http://www.w3.org/2000/svg" viewBox="0 0 800 800" width="800" height="800">
<path d="M310.5 122.15C304.9 125.7 300.22 131.38 295.43 135.96C286.41 144.58 277.22 153.05 268.23 161.69C238.64 190.12 208.69 218.2 178.95 246.46C167.16 257.66 155.18 268.68 143.52 280.02C140.73 282.73 130.47 290.95 129.32 293.79C128.31 296.31 128.91 299.82 128.91 302.5C128.91 309.17 128.91 315.83 128.91 322.5C128.91 344.83 128.91 367.17 128.91 389.5C128.91 448.5 128.91 507.5 128.91 566.5C128.91 575.5 128.9 584.5 128.91 593.5C128.91 598.28 129.44 603.41 128.55 608.12C127.21 615.17 120.99 619.86 113.74 617.7C102.44 614.34 105.91 590.74 105.91 581.5C105.91 543.5 105.91 505.5 105.92 467.5C105.92 425.83 105.9 384.17 105.91 342.5C105.92 330.5 105.91 318.5 105.91 306.5C105.91 299.8 105.11 292.23 107.37 285.78C109.57 279.49 117.65 274.31 122.34 269.87C134.67 258.2 147.09 246.59 159.31 234.83C191.22 204.1 223.3 173.41 255.79 143.29C265.99 133.83 275.99 124.14 286.05 114.53C291.06 109.74 296.28 103.25 302.24 99.69C317.6 90.49 334.57 110.54 344.6 119.91C378.21 151.32 412.84 181.66 446.63 212.89C453.73 219.45 461.02 225.82 468.1 232.41C470.83 234.96 473.99 237.25 476.4 240.12C480.05 244.44 481.27 250.41 477.62 255.17C474.03 259.83 467.67 260.77 462.66 257.86C458.25 255.29 454.58 251.07 450.86 247.63C444.96 242.19 438.93 236.91 433.03 231.48C403.71 204.48 374.34 177.47 344.61 150.92C337.04 144.16 329.66 137.19 322.09 130.43C318.5 127.21 315.41 122.84 310.5 122.15ZM528.5 290.64C524.27 292.77 520.95 296.73 517.48 299.99C511.8 305.3 506.15 310.69 500.36 315.88C477.92 336.01 455.87 356.75 434.04 377.54C426.87 384.36 419.62 391.14 412.26 397.76C409.78 399.98 404.34 403.5 403.36 406.75C402.08 411.02 403.17 421.59 403.17 426.5C403.17 440.5 403.17 454.5 403.17 468.5C403.17 506.83 403.18 545.17 403.17 583.5C403.17 594.48 407 616.89 394.33 621.8C389.37 623.72 383.71 623.07 378.5 623.07C369.83 623.07 361.17 623.07 352.5 623.07C337.5 623.07 322.5 623.07 307.5 623.07C301.32 623.07 293.47 624.29 288.14 620.39C279.82 614.31 282.81 594.82 282.8 585.5C282.78 564.17 282.74 542.83 282.72 521.5C282.71 514.5 282.7 507.5 282.69 500.5C282.68 497.79 283.23 494.4 282.57 491.76C281.73 488.4 276.19 485.05 273.65 482.88C265.57 475.97 257.81 468.68 249.77 461.71C244.17 456.84 238.98 450.05 244.33 442.78C247.8 438.08 254.44 437.3 259.32 440.17C267.58 445.03 273.85 453.32 281.5 459.05C284.08 449.64 276.39 420.44 295.31 423.33C301.87 424.33 304.89 430.5 305.13 436.5C305.6 448.45 304.25 460.61 305.5 472.5C313.13 466.95 319.72 459.56 326.78 453.3C329.26 451.1 331.42 448.45 334.28 446.75C339.94 443.36 347.66 444.42 350.76 450.73C354.8 458.94 347.52 465.52 341.84 470.38C333.25 477.74 325.43 486.01 316.83 493.37C314.22 495.6 306.27 501.72 305.4 504.76C304.01 509.64 305.24 528.23 305.25 534.5C305.28 556.15 304.56 578.28 306.15 599.87C330.72 599.87 355.3 599.87 379.87 599.87C381.09 583.23 380.12 566.19 380.12 549.5C380.12 517.83 380.12 486.17 380.12 454.5C380.12 441.17 380.12 427.83 380.12 414.5C380.12 408.26 379.02 400.85 381.47 394.93C383.08 391.04 386.83 389.81 389.84 387.36C394.54 383.54 398.96 379.04 403.36 374.87C422.68 356.51 442.57 338.76 461.91 320.42C476.28 306.78 491.03 293.55 505.42 279.93C512.7 273.03 519.53 265.05 530.48 265.28C537.92 265.44 544.6 274.22 549.58 278.93C563.97 292.55 578.72 305.78 593.09 319.42C617.05 342.14 641.69 364.14 665.64 386.87C671.61 392.54 677.63 398.23 683.76 403.72C687.27 406.85 692.02 410.19 693.65 414.8C696.91 424.02 695.23 440.45 695.25 450.5C695.31 473.51 695.97 496.49 696.06 519.5C696.16 544.17 696.21 568.83 696.27 593.5C696.29 601.45 698.87 614.25 690.15 618.6C683.71 621.82 676.11 618.2 674.3 611.26C672.3 603.6 673.85 586.27 673.69 577.5C673.11 545.17 672.85 512.85 672.78 480.5C672.74 462.71 674.06 444.21 672.2 426.5C671.72 421.96 666.11 418.58 662.95 415.55C654.26 407.24 645.22 399.29 636.5 391.01C613.58 369.25 590.26 347.9 567.05 326.46C554.19 314.58 541.78 302.05 528.5 290.64Z" fill="#3c4652" fill-rule="evenodd" stroke="#3c4652" stroke-width="0.25" stroke-linejoin="round"/>
<path d="M296.73 286.44C322.54 285.09 348.38 295.27 368.5 310.97C373.73 315.05 378.08 320.08 382.63 324.87C389.21 331.8 402.92 348.88 395.85 358.31C392 363.45 384.5 363.79 379.74 359.77C374.63 355.46 371.96 347.95 367.84 342.7C358.46 330.75 345.46 320.87 331.25 315.34C296.81 301.94 257.17 311.83 231.18 337.68C224.22 344.59 218.67 352.81 213.7 361.2C194.25 394.06 197.79 438.73 220.68 468.83C228.1 478.6 237.75 486.08 248.21 492.29C253.3 495.32 260.47 496.45 264.45 501.07C272.21 510.07 262.7 520.96 252.53 519C241.52 516.89 226.21 505.95 217.83 498.66C186.92 471.8 173.22 429.67 179.93 389.51C187.34 345.2 221.38 303.06 265.66 291.16C276.02 288.38 286 287 296.73 286.44ZM494.5 436C502.46 436 517.54 434.41 524.5 437C526.38 440.75 526 444.36 526 448.5C526 455.11 527.31 463.29 525 469.5C519.81 472.09 500 471.7 494 470.5C492.86 469.31 491.59 467.98 491.19 466.31C489.73 460.22 491 446.4 491 439.5C492.17 438.33 493.33 437.17 494.5 436ZM550.5 436C558.46 436 573.54 434.41 580.5 437C582.38 440.75 582 444.36 582 448.5C582 455.11 583.31 463.29 581 469.5C575.81 472.09 556 471.7 550 470.5C548.86 469.31 547.59 467.98 547.19 466.31C545.73 460.22 547 446.4 547 439.5C548.17 438.33 549.33 437.17 550.5 436ZM494.5 491C502.46 491 517.54 489.41 524.5 492C526.38 495.75 526 499.36 526 503.5C526 510.11 527.31 518.29 525 524.5C519.81 527.09 500 526.7 494 525.5C492.86 524.31 491.59 522.98 491.19 521.31C489.73 515.22 491 501.4 491 494.5C492.17 493.33 493.33 492.17 494.5 491ZM550.5 491C558.46 491 573.54 489.41 580.5 492C582.38 495.75 582 499.36 582 503.5C582 510.11 583.31 518.29 581 524.5C575.81 527.09 556 526.7 550 525.5C548.86 524.31 547.59 522.98 547.19 521.31C545.73 515.22 547 501.4 547 494.5C548.17 493.33 549.33 492.17 550.5 491Z" fill="#6f9f89" fill-rule="evenodd" stroke="#6f9f89" stroke-width="0.25" stroke-linejoin="round"/>
</svg>
