<?xml version="1.0" encoding="UTF-8"?>
<svg version="1.1" xmlns="http://www.w3.org/2000/svg" width="500" height="500">
<path d="M0 0 C3.48713188 1.92905168 6.37858207 4.0610095 9.3125 6.75 C10.611875 7.93916016 10.611875 7.93916016 11.9375 9.15234375 C16.96206712 13.81249541 21.95513108 18.50646285 26.94921875 23.19921875 C30.66306852 26.68686211 34.38702717 30.16322396 38.125 33.625 C38.63264893 34.09719971 39.14029785 34.56939941 39.66333008 35.0559082 C43.01940478 38.15772637 46.47690758 41.09244787 50 44 C51.875 45.6875 51.875 45.6875 53 47 C53 47.66 53 48.32 53 49 C53.598125 49.28875 54.19625 49.5775 54.8125 49.875 C57 51 57 51 60 53 C60 53.66 60 54.32 60 55 C60.61875 55.268125 61.2375 55.53625 61.875 55.8125 C64 57 64 57 66 60 C67.03899269 64.54034273 67.10282616 68.88937631 67.0534668 73.53417969 C67.04707184 74.26336105 67.04067688 74.99254242 67.03408813 75.74382019 C67.01143795 78.13660238 66.98079047 80.52919502 66.94921875 82.921875 C66.9299745 84.59002472 66.91091908 86.25817663 66.89204407 87.92633057 C66.85116548 91.41302273 66.80594882 94.89962793 66.75805664 98.38623047 C66.69723745 102.86082896 66.65043582 107.33545451 66.60722637 111.81025314 C66.57194105 115.25034347 66.52769868 118.69027526 66.48087502 122.13022614 C66.45979808 123.78085883 66.44190519 125.4315353 66.4272213 127.08223724 C66.40573175 129.38286261 66.371833 131.68297954 66.3347168 133.98339844 C66.31837692 135.29322693 66.30203705 136.60305542 66.28520203 137.95257568 C66 141 66 141 64 143 C60.5 143.25 60.5 143.25 57 143 C54.10223615 140.10223615 54.74190977 137.99263725 54.72875977 133.93579102 C54.72353302 133.20880005 54.71830627 132.48180908 54.71292114 131.73278809 C54.70266892 130.15206122 54.69689861 128.57130048 54.69503975 126.99054146 C54.69138597 124.49002843 54.67468733 121.98991557 54.65428162 119.48948669 C54.59877126 112.37970408 54.56816164 105.2698621 54.54370117 98.15991211 C54.52784392 93.81326642 54.49764388 89.46690424 54.45893669 85.1204052 C54.44726952 83.46221866 54.44135619 81.80398144 54.44125557 80.14575386 C54.44106394 77.8280686 54.42282973 75.5111673 54.40063477 73.19360352 C54.39556412 71.87393082 54.39049347 70.55425812 54.38526917 69.19459534 C53.97478333 65.79090711 53.58442312 65.05953361 51 63 C51 62.34 51 61.68 51 61 C50.34 61 49.68 61 49 61 C49 60.34 49 59.68 49 59 C47.35 58.34 45.7 57.68 44 57 C44 56.34 44 55.68 44 55 C43.34 55 42.68 55 42 55 C41.401875 54.236875 40.80375 53.47375 40.1875 52.6875 C38.22251775 49.94137204 38.22251775 49.94137204 35.6875 48.6875 C32.34102468 46.5862248 30.30041572 43.94443874 27.78125 40.93359375 C26.12811714 39.13907452 24.61990792 37.91087995 22.5625 36.625 C21.716875 36.08875 20.87125 35.5525 20 35 C20 34.34 20 33.68 20 33 C19.34 33 18.68 33 18 33 C16.61155268 31.34063613 15.22533367 29.67934688 13.8515625 28.0078125 C11.21455762 25.14827557 8.19396544 22.95038259 5.05078125 20.67578125 C3 19 3 19 1.38671875 16.8203125 C0.11934795 14.72926109 0.11934795 14.72926109 -2.5 14.5625 C-5.38830009 15.06795252 -6.11650414 15.8474333 -8 18 C-8.66 18 -9.32 18 -10 18 C-10.38285156 18.87205078 -10.38285156 18.87205078 -10.7734375 19.76171875 C-14.14526359 25.91476445 -20.57015916 30.60477928 -25.84375 35.125 C-29.26431966 38.0994084 -32.57471146 41.19543679 -35.8984375 44.27734375 C-38 46 -38 46 -40 46 C-40.268125 46.598125 -40.53625 47.19625 -40.8125 47.8125 C-41.99917406 49.99847854 -43.09599113 51.41332594 -45 53 C-45.66 53 -46.32 53 -47 53 C-47 53.66 -47 54.32 -47 55 C-47.66 55 -48.32 55 -49 55 C-49 55.66 -49 56.32 -49 57 C-49.66 57 -50.32 57 -51 57 C-50.99555878 58.03316849 -50.99111755 59.06633698 -50.98654175 60.1308136 C-50.94603615 69.85723705 -50.91603509 79.58364344 -50.89637566 89.31013203 C-50.88592887 94.31087567 -50.87175333 99.31155134 -50.84912109 104.31225586 C-50.82742465 109.13626462 -50.81543812 113.96020792 -50.81024551 118.7842617 C-50.806544 120.62670103 -50.79931608 122.4691367 -50.78853989 124.31154823 C-50.77406746 126.88787262 -50.77202027 129.46392485 -50.77294922 132.0402832 C-50.76575867 132.80560867 -50.75856812 133.57093414 -50.75115967 134.35945129 C-50.76589311 138.1240888 -50.85705672 139.78558507 -53 143 C-56.61010846 144.20336949 -59.91072402 144.14330286 -63.66796875 144.1328125 C-64.79843376 144.13424759 -64.79843376 144.13424759 -65.95173645 144.13571167 C-67.54798465 144.13639205 -69.14423563 144.13454764 -70.74047852 144.13037109 C-73.16103498 144.12505809 -75.58140272 144.13030147 -78.00195312 144.13671875 C-79.55729207 144.13605722 -81.1126309 144.1347745 -82.66796875 144.1328125 C-83.38284958 144.13483673 -84.09773041 144.13686096 -84.83427429 144.13894653 C-89.64059658 144.11700354 -94.28254371 143.97078048 -99 143 C-101.22189551 140.34632208 -101.23342373 137.84962085 -101.16015625 134.47265625 C-101.14855469 133.60455322 -101.13695312 132.7364502 -101.125 131.84204102 C-101.0940625 130.46616821 -101.0940625 130.46616821 -101.0625 129.0625 C-100.97585515 122.00515651 -101.09929955 115.10113874 -101.796875 108.0703125 C-102.1077268 103.37166792 -101.82412751 98.69339102 -101.546875 93.99609375 C-101.71017237 90.77974095 -101.71017237 90.77974095 -104.515625 88.72265625 C-105.33546875 88.15417969 -106.1553125 87.58570313 -107 87 C-107 86.34 -107 85.68 -107 85 C-107.556875 84.79375 -108.11375 84.5875 -108.6875 84.375 C-112.50150623 82.10721251 -115.08667483 78.82665034 -117.0625 74.875 C-117 73 -117 73 -115.4375 70.6875 C-113 69 -113 69 -110 69.0625 C-107.05879779 69.98162569 -105.28978584 70.97442022 -103 73 C-102.62875 71.081875 -102.62875 71.081875 -102.25 69.125 C-101.26345628 65.22711749 -101.26345628 65.22711749 -99.1875 63.4375 C-96.45620821 62.89124164 -94.64909307 63.16344429 -92 64 C-89.27893306 66.72106694 -89.39344428 68.84776311 -88.875 72.625 C-88.70742187 73.81351562 -88.53984375 75.00203125 -88.3671875 76.2265625 C-88.24601562 77.14179688 -88.12484375 78.05703125 -88 79 C-87.32904297 78.36771484 -87.32904297 78.36771484 -86.64453125 77.72265625 C-80.20402618 71.88637767 -80.20402618 71.88637767 -76 72 C-73.6875 73.0625 -73.6875 73.0625 -72 75 C-71.54071695 78.62933454 -71.52674044 80.35610945 -73.72265625 83.34375 C-74.88087891 84.41109375 -74.88087891 84.41109375 -76.0625 85.5 C-76.87847656 86.28117187 -77.69445312 87.06234375 -78.53515625 87.8671875 C-81 90 -81 90 -83.12109375 91.3828125 C-86.46822856 93.59567917 -87.79151647 95.02998983 -88.65234375 99.03515625 C-88.96448267 103.03309997 -89.01808775 106.99399344 -89 111 C-89.02225183 112.72269018 -89.04708836 114.44534849 -89.07421875 116.16796875 C-89.126263 120.7844231 -89.16445856 125.38548629 -89 130 C-87.95128747 131.27305556 -87.95128747 131.27305556 -85.59155273 131.11352539 C-84.54942627 131.10828857 -83.5072998 131.10305176 -82.43359375 131.09765625 C-81.30888672 131.09443359 -80.18417969 131.09121094 -79.02539062 131.08789062 C-77.84138672 131.07951172 -76.65738281 131.07113281 -75.4375 131.0625 C-74.24962891 131.05798828 -73.06175781 131.05347656 -71.83789062 131.04882812 C-68.89187774 131.03699675 -65.94596319 131.02051287 -63 131 C-62.99191315 130.0316925 -62.98382629 129.06338501 -62.97549438 128.06573486 C-62.89802864 118.94285438 -62.81028823 109.82012295 -62.71247292 100.69743729 C-62.66251502 96.00730602 -62.61618489 91.31719723 -62.578125 86.62695312 C-62.54126585 82.10108757 -62.49490411 77.57541021 -62.44193649 73.04970551 C-62.42339591 71.3225713 -62.40828669 69.59539676 -62.39665604 67.86820221 C-62.37978782 65.45002446 -62.35075166 63.03227742 -62.31884766 60.61425781 C-62.31668747 59.89928131 -62.31452728 59.18430481 -62.31230164 58.44766235 C-62.23261902 53.72385239 -61.72964041 50.70527928 -58.3359375 47.359375 C-57.68882812 46.82828125 -57.04171875 46.2971875 -56.375 45.75 C-53.42346042 43.25747019 -50.6428967 40.69563347 -47.9375 37.9375 C-44.94782943 34.90093264 -41.85180404 32.10105768 -38.5859375 29.3671875 C-37.1432758 28.12351362 -35.78434771 26.78434771 -34.4375 25.4375 C-32.58626921 23.58626921 -30.77247137 21.95545774 -28.75 20.3125 C-25.98257806 18.2957678 -25.98257806 18.2957678 -25 16 C-24.34 16 -23.68 16 -23 16 C-22.773125 15.38125 -22.54625 14.7625 -22.3125 14.125 C-20.61137042 11.3707902 -18.94623846 11.17849539 -16 10 C-14.65589738 7.98264795 -14.65589738 7.98264795 -14 6 C-13.34 6 -12.68 6 -12 6 C-11.773125 5.401875 -11.54625 4.80375 -11.3125 4.1875 C-8.53797356 -0.43671073 -5.02127722 -1.75744703 0 0 Z " fill="#424B55" transform="translate(303,195)"/>
<path d="M0 0 C3.125 1.75 3.125 1.75 6 4 C7.2684375 4.9590625 7.2684375 4.9590625 8.5625 5.9375 C11 8 11 8 13.1796875 10.18359375 C16.57301408 13.57222043 20.0598863 16.85003527 23.5625 20.125 C24.62041748 21.1152417 24.62041748 21.1152417 25.69970703 22.12548828 C36.44934513 32.17390424 47.26730776 42.15987445 58.375 51.8125 C59.01050781 52.37324219 59.64601563 52.93398437 60.30078125 53.51171875 C61.7018093 54.73882608 63.1288742 55.93613958 64.5625 57.125 C66 59 66 59 66 61.5 C64.80883865 64.47790338 63.50477535 66.01091369 61 68 C60.01 68 59.02 68 58 68 C58 67.34 58 66.68 58 66 C57.45859375 65.93683594 56.9171875 65.87367188 56.359375 65.80859375 C53.01121803 64.66112936 50.78730251 62.43664264 48.25 60.0625 C47.74339844 59.60681641 47.23679687 59.15113281 46.71484375 58.68164062 C45.43214232 57.50093297 44.21064807 56.25448188 43 55 C43 54.34 43 53.68 43 53 C42.071875 52.5359375 42.071875 52.5359375 41.125 52.0625 C39.75 51.375 38.375 50.6875 37 50 C37 49.34 37 48.68 37 48 C36.40703125 47.73574219 35.8140625 47.47148437 35.203125 47.19921875 C32.91970946 45.95629575 31.52573277 44.69598354 29.75 42.8125 C26.54744763 39.49210479 23.15636977 36.51530166 19.6015625 33.578125 C18 32 18 32 17 29 C14.98491642 28.26676204 14.98491642 28.26676204 13 28 C13 27.34 13 26.68 13 26 C12.4534375 25.77699219 11.906875 25.55398437 11.34375 25.32421875 C7.18869857 22.97661469 4.04304135 19.34584418 0.65625 16.01953125 C-1.71243803 13.7385782 -1.71243803 13.7385782 -3.98852539 14.21459961 C-7.3260718 15.517778 -9.51003204 18.20434071 -11.9375 20.75 C-12.44990234 21.2759375 -12.96230469 21.801875 -13.49023438 22.34375 C-15.92670697 24.84523648 -18.34518884 27.36232588 -20.75390625 29.890625 C-23 32 -23 32 -25 32 C-25 32.66 -25 33.32 -25 34 C-26.65234375 35.41015625 -26.65234375 35.41015625 -28.9375 37.0625 C-33.44101807 40.44013855 -37.2871967 44.19405789 -41.15234375 48.27734375 C-43 50 -43 50 -45 50 C-45 50.66 -45 51.32 -45 52 C-46.43442292 53.20091221 -47.87328971 54.39713842 -49.33984375 55.55859375 C-51.03116131 57.02705535 -52.36134039 58.55905817 -53.75 60.3125 C-54.4925 61.199375 -55.235 62.08625 -56 63 C-56.66 63 -57.32 63 -58 63 C-58 63.66 -58 64.32 -58 65 C-59.57421875 66.33203125 -59.57421875 66.33203125 -61.6875 67.8125 C-65.11645891 70.29637483 -68.08276156 72.91606222 -71 76 C-71.79433599 76.66945963 -71.79433599 76.66945963 -72.60471916 77.3524437 C-74.44285359 79.52292427 -74.42303655 80.85103169 -74.51199341 83.67340088 C-74.56536267 85.09132746 -74.56536267 85.09132746 -74.6198101 86.53789902 C-74.6423089 87.56212086 -74.6648077 88.5863427 -74.68798828 89.64160156 C-74.72135851 90.71189732 -74.75472874 91.78219307 -74.78911018 92.88492203 C-75.08451361 103.4193692 -75.08820365 113.95301161 -75.01403427 124.49044037 C-74.99149531 127.83715473 -74.97776213 131.18380869 -74.96633911 134.53057861 C-74.93318108 144.02388553 -74.89049645 153.5170883 -74.82861328 163.01025391 C-74.79104617 168.86692298 -74.76798177 174.72349745 -74.75430679 180.58026886 C-74.74626103 182.79869527 -74.7326642 185.01710886 -74.71337509 187.235466 C-74.68699523 190.3143261 -74.67901394 193.39272093 -74.67529297 196.47167969 C-74.6629361 197.38271957 -74.65057922 198.29375946 -74.6378479 199.23240662 C-74.64936885 202.83415306 -74.65900343 205.32410166 -76.29763794 208.57208252 C-78 210 -78 210 -81.5625 210.375 C-85 210 -85 210 -87 208 C-87.26729965 205.77443409 -87.26729965 205.77443409 -87.29193115 202.94721985 C-87.30598495 201.87757492 -87.32003876 200.80792999 -87.33451843 199.70587158 C-87.33982071 198.52716492 -87.34512299 197.34845825 -87.35058594 196.1340332 C-87.36384415 194.89652817 -87.37710236 193.65902313 -87.39076233 192.38401794 C-87.42488504 188.98292355 -87.45002211 185.58199753 -87.4705801 182.18080926 C-87.48897442 179.34059831 -87.51372055 176.50045795 -87.53855062 173.6602971 C-87.59716497 166.95562675 -87.6458602 160.25093544 -87.68798828 153.54614258 C-87.73153389 146.63649779 -87.78958729 139.72708799 -87.85523582 132.81762058 C-87.91122425 126.88296155 -87.95916411 120.94827638 -88.0004847 115.01349705 C-88.02517043 111.47029591 -88.05262751 107.92717587 -88.08739471 104.384058 C-88.12570475 100.42706289 -88.14715064 96.47007227 -88.16699219 92.51293945 C-88.18039139 91.34435394 -88.19379059 90.17576843 -88.20759583 88.97177124 C-88.24174189 75.63404672 -88.24174189 75.63404672 -83.5 70.0625 C-81 68 -81 68 -79 68 C-78.78988281 67.45214844 -78.57976562 66.90429688 -78.36328125 66.33984375 C-76.50890669 63.15712064 -73.92338549 60.967565 -71.1875 58.5625 C-70.13831021 57.62743716 -69.09012375 56.69124724 -68.04296875 55.75390625 C-67.53145264 55.29669189 -67.01993652 54.83947754 -66.49291992 54.3684082 C-64.25618702 52.31822212 -62.13789259 50.15233781 -60 48 C-54.5308642 43 -54.5308642 43 -52 43 C-51.60167969 42.11248047 -51.60167969 42.11248047 -51.1953125 41.20703125 C-47.72180408 34.79352714 -39.41759543 27.05414222 -32.82421875 23.98828125 C-30.64593724 23.07698722 -30.64593724 23.07698722 -30 20 C-28.43359375 18.45703125 -28.43359375 18.45703125 -26.4375 16.8125 C-23.44852576 14.28788426 -20.65846162 11.68630605 -17.9375 8.875 C-7.82204286 -1.27997065 -7.82204286 -1.27997065 0 0 Z " fill="#525B64" transform="translate(218,128)"/>
<path d="M0 0 C0 0.66 0 1.32 0 2 C0.57492188 2.23976562 1.14984375 2.47953125 1.7421875 2.7265625 C4.45094995 4.25434201 6.08155452 6.03630384 8.125 8.375 C8.80820313 9.14585937 9.49140625 9.91671875 10.1953125 10.7109375 C12.85868408 14.0891534 14.11402005 15.83699554 13.6875 20.1875 C13 23 13 23 12 24 C9.21875 24.38671875 9.21875 24.38671875 6 24 C3.65625 21.76953125 3.65625 21.76953125 1.5 18.8125 C-4.60910486 10.87066369 -10.7916398 5.21077925 -21 3.49609375 C-30.14016779 2.59350218 -36.57379903 3.45887695 -44.66796875 7.84375 C-47 9 -47 9 -49.22265625 9.52734375 C-51.22958288 9.84116782 -51.22958288 9.84116782 -52.25 12.0625 C-52.4975 12.701875 -52.745 13.34125 -53 14 C-53.66 14 -54.32 14 -55 14 C-56.60220382 17.15224287 -58.09601906 20.34499705 -59.5625 23.5625 C-59.99691406 24.51253906 -60.43132812 25.46257812 -60.87890625 26.44140625 C-64.48551479 34.67251633 -64.53591474 46.26009514 -61.25 54.6875 C-59.49489785 58.3669463 -57.33383825 61.66594536 -55 65 C-55 65.66 -55 66.32 -55 67 C-54.34 67 -53.68 67 -53 67 C-53 67.66 -53 68.32 -53 69 C-52.34 69 -51.68 69 -51 69 C-51 69.66 -51 70.32 -51 71 C-50.01 71.37125 -50.01 71.37125 -49 71.75 C-48.01 72.1625 -47.02 72.575 -46 73 C-45.31421875 73.268125 -44.6284375 73.53625 -43.921875 73.8125 C-41.7806084 74.73678774 -39.89661474 75.64024604 -38 77 C-36.8125 80.0625 -36.8125 80.0625 -37 83 C-37.9375 84.9375 -37.9375 84.9375 -40 86 C-47.53548744 86.26912455 -53.207209 82.61080607 -59 78 C-59 77.34 -59 76.68 -59 76 C-59.66 76 -60.32 76 -61 76 C-61 75.34 -61 74.68 -61 74 C-61.66 74 -62.32 74 -63 74 C-69.27418211 65.87137983 -74.2605724 56.3519864 -75 46 C-75.0515625 45.28714844 -75.103125 44.57429688 -75.15625 43.83984375 C-75.70033174 29.8977492 -71.70701534 18.26023464 -62.6875 7.8125 C-46.18704676 -9.7498636 -20.57979936 -13.71986624 0 0 Z " fill="#76A08D" transform="translate(236,212)"/>
<path d="M0 0 C3.125 1.75 3.125 1.75 6 4 C7.2684375 4.9590625 7.2684375 4.9590625 8.5625 5.9375 C11 8 11 8 13.1796875 10.18359375 C16.57301408 13.57222043 20.0598863 16.85003527 23.5625 20.125 C24.62041748 21.1152417 24.62041748 21.1152417 25.69970703 22.12548828 C36.44934513 32.17390424 47.26730776 42.15987445 58.375 51.8125 C59.01050781 52.37324219 59.64601563 52.93398437 60.30078125 53.51171875 C61.7018093 54.73882608 63.1288742 55.93613958 64.5625 57.125 C66 59 66 59 66 61.5 C64.80883865 64.47790338 63.50477535 66.01091369 61 68 C60.01 68 59.02 68 58 68 C58 67.34 58 66.68 58 66 C57.45859375 65.93683594 56.9171875 65.87367188 56.359375 65.80859375 C53.01121803 64.66112936 50.78730251 62.43664264 48.25 60.0625 C47.74339844 59.60681641 47.23679687 59.15113281 46.71484375 58.68164062 C45.43214232 57.50093297 44.21064807 56.25448188 43 55 C43 54.34 43 53.68 43 53 C42.38125 52.690625 41.7625 52.38125 41.125 52.0625 C39.75 51.375 38.375 50.6875 37 50 C37 49.34 37 48.68 37 48 C36.40703125 47.73574219 35.8140625 47.47148437 35.203125 47.19921875 C32.91970946 45.95629575 31.52573277 44.69598354 29.75 42.8125 C26.54744763 39.49210479 23.15636977 36.51530166 19.6015625 33.578125 C18 32 18 32 17 29 C14.98491642 28.26676204 14.98491642 28.26676204 13 28 C13 27.34 13 26.68 13 26 C12.18015625 25.66548828 12.18015625 25.66548828 11.34375 25.32421875 C7.18869857 22.97661469 4.04304135 19.34584418 0.65625 16.01953125 C-1.71607302 13.83461944 -1.71607302 13.83461944 -4.03515625 13.8515625 C-6.35759292 15.20901057 -7.87835857 16.95742003 -9.60302734 18.99975586 C-12.79367277 22.73618494 -15.37872479 25.72333188 -20.43359375 26.5859375 C-23.875 26.4375 -23.875 26.4375 -27.0546875 25.99609375 C-30.90645933 26.0012022 -32.27988299 27.39531231 -35 30 C-35.6875 28.1875 -35.6875 28.1875 -36 26 C-34.6875 24.25 -34.6875 24.25 -33 23 C-32.34 23 -31.68 23 -31 23 C-30.67 22.01 -30.34 21.02 -30 20 C-28.43359375 18.45703125 -28.43359375 18.45703125 -26.4375 16.8125 C-23.44852576 14.28788426 -20.65846162 11.68630605 -17.9375 8.875 C-7.82204286 -1.27997065 -7.82204286 -1.27997065 0 0 Z " fill="#414953" transform="translate(218,128)"/>
<path d="M0 0 C0.99 0 1.98 0 3 0 C3 3.78706732 2.5745952 7.26513121 2 11 C1.34 11 0.68 11 0 11 C0.00444122 11.91010834 0.00888245 12.82021667 0.01345825 13.75790405 C0.05348176 22.32206579 0.08395726 30.88619626 0.10362434 39.45042992 C0.11407518 43.85371251 0.12825796 48.25691802 0.15087891 52.66015625 C0.17256112 56.90709824 0.18455883 61.15396596 0.18975449 65.40095901 C0.19345858 67.02373042 0.20069146 68.64649762 0.21146011 70.26923752 C0.2259138 72.53684117 0.22798054 74.80413528 0.22705078 77.07177734 C0.231492 78.36417328 0.23593323 79.65656921 0.24050903 80.98812866 C0 84 0 84 -2 86 C-2.99 86 -3.98 86 -5 86 C-5.99 86.495 -5.99 86.495 -7 87 C-7.33 86.34 -7.66 85.68 -8 85 C-9.485 85.495 -9.485 85.495 -11 86 C-11.04632695 75.76878148 -11.08187106 65.53758788 -11.10362434 55.30628586 C-11.11406447 50.55555264 -11.1282279 45.80489115 -11.15087891 41.05419922 C-11.17259905 36.47008814 -11.1845669 31.88604608 -11.18975449 27.30188751 C-11.19345173 25.55238 -11.20067144 23.80287629 -11.21146011 22.05339813 C-11.22596403 19.6042004 -11.22797841 17.15528841 -11.22705078 14.70605469 C-11.23424133 13.98172745 -11.24143188 13.25740021 -11.24884033 12.51112366 C-11.23379211 8.84274695 -11.08167816 6.08295292 -9 3 C-6.00772027 0.11090233 -4.09886073 -0.31529698 0 0 Z " fill="#3F4952" transform="translate(252,241)"/>
<path d="M0 0 C2.72106694 2.72106694 2.60655572 4.84776311 3.125 8.625 C3.29257813 9.81351562 3.46015625 11.00203125 3.6328125 12.2265625 C3.75398438 13.14179688 3.87515625 14.05703125 4 15 C4.44730469 14.57847656 4.89460938 14.15695312 5.35546875 13.72265625 C11.79597382 7.88637767 11.79597382 7.88637767 16 8 C18.3125 9.0625 18.3125 9.0625 20 11 C20.45928305 14.62933454 20.47325956 16.35610945 18.27734375 19.34375 C17.11912109 20.41109375 17.11912109 20.41109375 15.9375 21.5 C15.11894531 22.263125 14.30039063 23.02625 13.45703125 23.8125 C12.64621094 24.534375 11.83539063 25.25625 11 26 C10.32324219 26.61875 9.64648438 27.2375 8.94921875 27.875 C6.25228585 30.27740704 4.47209446 31.84263518 1 33 C0.34 33.99 -0.32 34.98 -1 36 C-1.495 33.525 -1.495 33.525 -2 31 C-2.99 31 -3.98 31 -5 31 C-5.80616765 33.8543996 -6.1443336 36.43906054 -6.20532227 39.40136719 C-6.22526749 40.2619574 -6.24521271 41.12254761 -6.26576233 42.00921631 C-6.29083107 43.38910736 -6.29083107 43.38910736 -6.31640625 44.796875 C-6.33718735 45.74564514 -6.35796844 46.69441528 -6.37937927 47.67193604 C-6.44467934 50.69788482 -6.50366888 53.7239192 -6.5625 56.75 C-6.6057038 58.80339421 -6.64931869 60.85677982 -6.69335938 62.91015625 C-6.80034073 67.9400168 -6.90166323 72.96996332 -7 78 C-9.11101907 74.83347139 -9.23769569 74.16829088 -9.16015625 70.5703125 C-9.14855469 69.69898682 -9.13695312 68.82766113 -9.125 67.92993164 C-9.104375 67.0043042 -9.08375 66.07867676 -9.0625 65.125 C-8.97601221 58.04681493 -9.09724622 51.12183416 -9.796875 44.0703125 C-10.1077268 39.37166792 -9.82412751 34.69339102 -9.546875 29.99609375 C-9.71017237 26.77974095 -9.71017237 26.77974095 -12.515625 24.72265625 C-13.33546875 24.15417969 -14.1553125 23.58570313 -15 23 C-15 22.34 -15 21.68 -15 21 C-15.8353125 20.690625 -15.8353125 20.690625 -16.6875 20.375 C-20.50150623 18.10721251 -23.08667483 14.82665034 -25.0625 10.875 C-25 9 -25 9 -23.4375 6.6875 C-21 5 -21 5 -18 5.0625 C-15.05879779 5.98162569 -13.28978584 6.97442022 -11 9 C-10.62875 7.081875 -10.62875 7.081875 -10.25 5.125 C-9.26345628 1.22711749 -9.26345628 1.22711749 -7.1875 -0.5625 C-4.45620821 -1.10875836 -2.64909307 -0.83655571 0 0 Z " fill="#434C55" transform="translate(211,259)"/>
<path d="M0 0 C0.99 0.33 1.98 0.66 3 1 C3.6875 3.0625 3.6875 3.0625 4 5 C4.886875 4.690625 5.77375 4.38125 6.6875 4.0625 C9.46709155 3.1709329 12.13136375 2.50622993 15 2 C15 2.66 15 3.32 15 4 C15.66 4 16.32 4 17 4 C17 4.66 17 5.32 17 6 C17.66 6.2475 18.32 6.495 19 6.75 C19.99 7.1625 20.98 7.575 22 8 C22.68578125 8.268125 23.3715625 8.53625 24.078125 8.8125 C26.2193916 9.73678774 28.10338526 10.64024604 30 12 C31.1875 15.0625 31.1875 15.0625 31 18 C30.0625 19.9375 30.0625 19.9375 28 21 C20.46451256 21.26912455 14.792791 17.61080607 9 13 C9 12.34 9 11.68 9 11 C8.34 11 7.68 11 7 11 C7 10.34 7 9.68 7 9 C6.34 9 5.68 9 5 9 C3.7109375 7.5390625 3.7109375 7.5390625 2.375 5.625 C1.92898437 4.99851562 1.48296875 4.37203125 1.0234375 3.7265625 C0 2 0 2 0 0 Z " fill="#749E8A" transform="translate(168,277)"/>
<path d="M0 0 C1.59521484 0.14501953 1.59521484 0.14501953 3.22265625 0.29296875 C5.9375 0.8125 5.9375 0.8125 7.9375 2.8125 C7.9140625 6.0703125 7.9140625 6.0703125 7.5625 9.9375 C7.39621094 11.85949219 7.39621094 11.85949219 7.2265625 13.8203125 C7.08347656 15.30144531 7.08347656 15.30144531 6.9375 16.8125 C-4.52987312 18.83425125 -4.52987312 18.83425125 -9.0625 15.8125 C-9.4609375 12.87890625 -9.4609375 12.87890625 -9.4375 9.375 C-9.44523437 8.22128906 -9.45296875 7.06757813 -9.4609375 5.87890625 C-9.0625 2.8125 -9.0625 2.8125 -7.91796875 0.890625 C-5.17132715 -0.70531833 -3.12379828 -0.32262801 0 0 Z " fill="#78A190" transform="translate(294.0625,284.1875)"/>
<path d="M0 0 C1.77503906 0.03480469 1.77503906 0.03480469 3.5859375 0.0703125 C5.36871094 0.09738281 5.36871094 0.09738281 7.1875 0.125 C8.10273438 0.14820313 9.01796875 0.17140625 9.9609375 0.1953125 C12.22366957 3.75350186 12.03425494 6.32079201 11.5859375 10.4453125 C11.41964844 12.06179688 11.41964844 12.06179688 11.25 13.7109375 C11.10691406 14.94070313 11.10691406 14.94070313 10.9609375 16.1953125 C5.79890956 17.31286494 1.05106989 17.8920233 -4.0390625 16.1953125 C-5.40177383 13.46988983 -5.20829851 11.23443976 -5.2265625 8.1953125 C-5.24074219 7.1228125 -5.25492187 6.0503125 -5.26953125 4.9453125 C-4.93286868 0.9281862 -3.98544064 0.25613372 0 0 Z " fill="#759E8A" transform="translate(312.0390625,284.8046875)"/>
<path d="M0 0 C2.96875 -0.36328125 2.96875 -0.36328125 6.5 -0.3125 C8.24796875 -0.30669922 8.24796875 -0.30669922 10.03125 -0.30078125 C13 0 13 0 15 2 C15.23046875 4.2421875 15.23046875 4.2421875 15.1875 6.875 C15.18105469 7.73867188 15.17460937 8.60234375 15.16796875 9.4921875 C15.01202052 11.82053088 14.77447112 13.79991007 14 16 C11.41991408 17.29004296 9.44258426 17.20410224 6.5625 17.25 C5.11037109 17.28867187 5.11037109 17.28867187 3.62890625 17.328125 C1 17 1 17 -0.828125 15.828125 C-2.4447345 13.30621418 -2.36448884 11.47536122 -2.3125 8.5 C-2.30669922 7.06140625 -2.30669922 7.06140625 -2.30078125 5.59375 C-2 3 -2 3 0 0 Z " fill="#7DA292" transform="translate(309,263)"/>
<path d="M0 0 C1.17433594 0.01417969 2.34867187 0.02835937 3.55859375 0.04296875 C5.32396484 0.05263672 5.32396484 0.05263672 7.125 0.0625 C9.99609375 0.23046875 9.99609375 0.23046875 10.99609375 1.23046875 C11.25828292 3.18232148 11.45637693 5.14298548 11.62109375 7.10546875 C11.71648437 8.17539062 11.811875 9.2453125 11.91015625 10.34765625 C11.99609375 13.23046875 11.99609375 13.23046875 10.99609375 16.23046875 C-0.22088738 18.419148 -0.22088738 18.419148 -5.00390625 15.23046875 C-5.3671875 12.26171875 -5.3671875 12.26171875 -5.31640625 8.73046875 C-5.31253906 7.56515625 -5.30867188 6.39984375 -5.3046875 5.19921875 C-4.88911597 1.09747373 -4.11584374 0.31577995 0 0 Z " fill="#709B88" transform="translate(290.00390625,262.76953125)"/>
<path d="M0 0 C2 2 2 2 2.22705078 3.97119141 C2.21134033 5.1494751 2.21134033 5.1494751 2.1953125 6.3515625 C2.18564453 7.62773437 2.18564453 7.62773437 2.17578125 8.9296875 C2.15902344 9.81914062 2.14226562 10.70859375 2.125 11.625 C2.11597656 12.5221875 2.10695312 13.419375 2.09765625 14.34375 C2.0740497 16.56276586 2.0411231 18.78125077 2 21 C-1.70778945 22.85389472 -4.02224803 23.11510202 -8 22 C-8.05382106 19.37472811 -8.09358313 16.75055287 -8.125 14.125 C-8.14175781 13.37863281 -8.15851563 12.63226563 -8.17578125 11.86328125 C-8.1933959 9.90805539 -8.10320189 7.95257979 -8 6 C-7.34 5.34 -6.68 4.68 -6 4 C-5.01 4 -4.02 4 -3 4 C-3 3.34 -3 2.68 -3 2 C-2.01 1.34 -1.02 0.68 0 0 Z " fill="#6C9985" transform="translate(170,243)"/>
<path d="M0 0 C0.556875 0.226875 1.11375 0.45375 1.6875 0.6875 C1.3575 2.0075 1.0275 3.3275 0.6875 4.6875 C1.3475 5.0175 2.0075 5.3475 2.6875 5.6875 C2.08728042 8.68859791 1.17408966 10.3201345 -1.2734375 12.16796875 C-7.35199544 15.77269497 -7.35199544 15.77269497 -11.04296875 15.4453125 C-13.3125 14.6875 -13.3125 14.6875 -14.3125 12.6875 C-12.00549851 7.10212796 -7.01203297 -0.94757202 0 0 Z " fill="#6E9985" transform="translate(183.3125,214.3125)"/>
<path d="M0 0 C3.07159888 2.0259482 5.4523799 4.23310459 7.9375 6.9375 C6.1875 11.8125 6.1875 11.8125 3.9375 12.9375 C2.80399466 14.95419827 2.80399466 14.95419827 1.9375 16.9375 C0.6175 16.2775 -0.7025 15.6175 -2.0625 14.9375 C-1.85625 14.256875 -1.65 13.57625 -1.4375 12.875 C-0.96186171 9.14916669 -1.88580851 6.46757446 -3.0625 2.9375 C-4.7125 3.2675 -6.3625 3.5975 -8.0625 3.9375 C-8.3925 2.9475 -8.7225 1.9575 -9.0625 0.9375 C-5.47235641 -0.68661258 -3.79197281 -1.3155824 0 0 Z " fill="#3B444D" transform="translate(220.0625,129.0625)"/>
<path d="M0 0 C4.012871 1.33762367 4.93695862 3.33405386 7.0546875 6.859375 C8.3895805 9.88219055 8.05109832 11.92178348 7 15 C6 16 6 16 3.25 16.4375 C-0.3408444 15.9541171 -0.69709234 15.64460216 -2.875 13 C-3.926875 11.515 -3.926875 11.515 -5 10 C-4.175 9.46375 -3.35 8.9275 -2.5 8.375 C0.33951208 6.19728131 0.33951208 6.19728131 0.3125 2.75 C0.209375 1.8425 0.10625 0.935 0 0 Z " fill="#6D9481" transform="translate(242,220)"/>
<path d="M0 0 C1.65 0.99 3.3 1.98 5 3 C4.51781006 3.93138794 4.51781006 3.93138794 4.02587891 4.8815918 C2.59527221 9.23026846 2.64341427 13.34281678 2.5859375 17.89453125 C2.56657135 18.84188644 2.5472052 19.78924164 2.5272522 20.76530457 C2.46763629 23.78094577 2.42114295 26.79662552 2.375 29.8125 C2.33680367 31.86134446 2.29775098 33.91017314 2.2578125 35.95898438 C2.16194947 40.97252762 2.07785193 45.98614603 2 51 C-0.11101907 47.83347139 -0.23769569 47.16829088 -0.16015625 43.5703125 C-0.14855469 42.69890625 -0.13695312 41.8275 -0.125 40.9296875 C-0.104375 40.00414062 -0.08375 39.07859375 -0.0625 38.125 C0.02426049 31.02992031 -0.12552606 24.08711556 -0.7734375 17.015625 C-1.17315975 11.69518405 -1.2849037 6.32937507 -1 1 C-0.67 0.67 -0.34 0.34 0 0 Z " fill="#7C8286" transform="translate(202,286)"/>
<path d="M0 0 C0.66 0 1.32 0 2 0 C3.32421875 1.6796875 3.32421875 1.6796875 4.6875 3.875 C5.37392578 4.95394531 5.37392578 4.95394531 6.07421875 6.0546875 C6.37972656 6.69664062 6.68523437 7.33859375 7 8 C6.67 8.66 6.34 9.32 6 10 C3.93359375 10.4140625 3.93359375 10.4140625 1.4375 10.625 C0.19806641 10.73714844 0.19806641 10.73714844 -1.06640625 10.8515625 C-2.02353516 10.92503906 -2.02353516 10.92503906 -3 11 C-3.28875 10.360625 -3.5775 9.72125 -3.875 9.0625 C-4.82823451 6.84793921 -4.82823451 6.84793921 -7 6 C-7 5.34 -7 4.68 -7 4 C-6.34 3.67 -5.68 3.34 -5 3 C-4.67 2.34 -4.34 1.68 -4 1 C-2.68 1.33 -1.36 1.66 0 2 C0 1.34 0 0.68 0 0 Z " fill="#6E9B88" transform="translate(175,271)"/>
<path d="M0 0 C0.66 1.32 1.32 2.64 2 4 C2.721875 3.855625 3.44375 3.71125 4.1875 3.5625 C6.79166667 3.04166667 9.39583333 2.52083333 12 2 C10.02 5.63 8.04 9.26 6 13 C4 11 4 11 3 8 C-1.07964281 9.30155006 -1.07964281 9.30155006 -5 11 C-3.77472971 6.94718288 -2.30119506 3.55639236 0 0 Z " fill="#80A595" transform="translate(169,225)"/>
<path d="M0 0 C3.465 1.485 3.465 1.485 7 3 C5.02 3.99 5.02 3.99 3 5 C3.33 5.66 3.66 6.32 4 7 C3.34 7 2.68 7 2 7 C2.33 8.65 2.66 10.3 3 12 C-2.62708022 11.27392513 -8.95262202 9.04737798 -13 5 C-10.525 5.495 -10.525 5.495 -8 6 C-8 5.34 -8 4.68 -8 4 C-6.68 3.67 -5.36 3.34 -4 3 C-4 4.32 -4 5.64 -4 7 C-3.01 6.67 -2.02 6.34 -1 6 C-0.67 4.02 -0.34 2.04 0 0 Z " fill="#769E8D" transform="translate(229,209)"/>
<path d="M0 0 C0 0.33 0 0.66 0 1 C-1.65 1.33 -3.3 1.66 -5 2 C-5 2.99 -5 3.98 -5 5 C-3.68 5 -2.36 5 -1 5 C-0.67 4.34 -0.34 3.68 0 3 C3.25601751 10.21225383 3.25601751 10.21225383 2.1875 13.5 C1.795625 13.995 1.40375 14.49 1 15 C-0.32 14.01 -1.64 13.02 -3 12 C-2.34 12 -1.68 12 -1 12 C-2.1446875 10.9171875 -2.1446875 10.9171875 -3.3125 9.8125 C-5.71133591 7.30209033 -7.35410221 5.03191698 -9 2 C-5.5647952 -0.29013653 -4.014669 -0.17842973 0 0 Z " fill="#404B55" transform="translate(217,128)"/>
<path d="M0 0 C2.4375 0.625 2.4375 0.625 5 2 C6.05964914 5.11271935 6.51962799 6.92610216 5.0625 9.9375 C1.73607371 11.65111354 -1.50154354 10.83061944 -5 10 C-7.5 8.9375 -7.5 8.9375 -9 8 C-9 7.34 -9 6.68 -9 6 C-7.741875 6.226875 -6.48375 6.45375 -5.1875 6.6875 C-1.85861291 7.20193197 -1.85861291 7.20193197 1 5.5625 C1.33 5.046875 1.66 4.53125 2 4 C1.34 2.68 0.68 1.36 0 0 Z " fill="#819F91" transform="translate(193,287)"/>
<path d="M0 0 C0 0.66 0 1.32 0 2 C-0.66 2 -1.32 2 -2 2 C-3.01111093 5.04913228 -3.01111093 5.04913228 -2 8 C-2.4375 10.125 -2.4375 10.125 -3 12 C-2.34 12.33 -1.68 12.66 -1 13 C-2.32 13 -3.64 13 -5 13 C-5.33 11.02 -5.66 9.04 -6 7 C-6.598125 7.165 -7.19625 7.33 -7.8125 7.5 C-10 8 -10 8 -13 8 C-11.92130607 7.03644756 -10.83681257 6.07938583 -9.75 5.125 C-8.84507812 4.32449219 -8.84507812 4.32449219 -7.921875 3.5078125 C-5.41154782 1.53832817 -3.24789041 0 0 0 Z " fill="#8AAA9C" transform="translate(190,208)"/>
<path d="M0 0 C2.66666667 0 5.33333333 0 8 0 C8 3 8 6 8 9 C4.54074837 7.7508258 1.85306797 6.32472205 -1 4 C-0.67 2.68 -0.34 1.36 0 0 Z " fill="#38434C" transform="translate(247,241)"/>
<path d="M0 0 C3.73639216 1.24546405 4.18756513 2.63404953 6 6 C3.58443874 9.19199167 1.31996462 11.74716687 -2 14 C-2.99 12.35 -3.98 10.7 -5 9 C-4.175 8.62875 -3.35 8.2575 -2.5 7.875 C-1.675 7.25625 -0.85 6.6375 0 6 C0.41746608 2.87364791 0.41746608 2.87364791 0 0 Z " fill="#7BA290" transform="translate(242,220)"/>
<path d="M0 0 C0.99 0.33 1.98 0.66 3 1 C3.6875 3.0625 3.6875 3.0625 4 5 C4.886875 4.690625 5.77375 4.38125 6.6875 4.0625 C9.46709155 3.1709329 12.13136375 2.50622993 15 2 C15 2.66 15 3.32 15 4 C15.66 4.33 16.32 4.66 17 5 C16.030625 5.12375 15.06125 5.2475 14.0625 5.375 C12.5465625 5.684375 12.5465625 5.684375 11 6 C10.67 6.66 10.34 7.32 10 8 C7.4375 8.625 7.4375 8.625 5 9 C4.16094435 7.87926138 3.32892169 6.75325453 2.5 5.625 C2.0359375 4.99851562 1.571875 4.37203125 1.09375 3.7265625 C0 2 0 2 0 0 Z " fill="#81A494" transform="translate(168,277)"/>
<path d="M0 0 C0.66 0.99 1.32 1.98 2 3 C-6 6.33333333 -6 6.33333333 -10 5 C-7.83712171 -1.02516094 -6.27338013 -1.56834503 0 0 Z " fill="#58646A" transform="translate(196,265)"/>
<path d="M0 0 C0.75 1.75 0.75 1.75 1 4 C-0.28965176 5.37562854 -1.62689293 6.70766393 -3 8 C-3.165 8.70125 -3.33 9.4025 -3.5 10.125 C-4 12 -4 12 -6.0625 13.25 C-6.701875 13.4975 -7.34125 13.745 -8 14 C-8.33 12.35 -8.66 10.7 -9 9 C-8.34 9 -7.68 9 -7 9 C-6.6596875 8.1646875 -6.6596875 8.1646875 -6.3125 7.3125 C-4.64103234 4.36753316 -2.44723648 2.31843456 0 0 Z " fill="#3D454E" transform="translate(146,187)"/>
<path d="M0 0 C0.66 0.33 1.32 0.66 2 1 C2.25 3.8125 2.25 3.8125 2 7 C0.1875 8.9375 0.1875 8.9375 -2 10 C-2.99 9.67 -3.98 9.34 -5 9 C-5.33 7.02 -5.66 5.04 -6 3 C-4 2 -2 1 0 0 Z " fill="#699681" transform="translate(241,219)"/>
<path d="M0 0 C0.33 0.66 0.66 1.32 1 2 C1.66 2 2.32 2 3 2 C3 1.34 3 0.68 3 0 C4.65 0 6.3 0 8 0 C7.04578192 1.14926266 6.08647955 2.29430541 5.125 3.4375 C4.59132813 4.07558594 4.05765625 4.71367187 3.5078125 5.37109375 C2 7 2 7 0 8 C-0.99 7.67 -1.98 7.34 -3 7 C-2.25 2.25 -2.25 2.25 0 0 Z " fill="#49515B" transform="translate(269,229)"/>
<path d="M0 0 C1.32 1.32 2.64 2.64 4 4 C3.360625 4.598125 2.72125 5.19625 2.0625 5.8125 C-0.20310389 7.90810337 -0.20310389 7.90810337 -1 11 C-3.0625 11.6875 -3.0625 11.6875 -5 12 C-6 9 -6 9 -5.0625 6.8125 C-4.711875 6.214375 -4.36125 5.61625 -4 5 C-3.34 5 -2.68 5 -2 5 C-1.34 3.35 -0.68 1.7 0 0 Z " fill="#4F5961" transform="translate(228,136)"/>
<path d="M0 0 C1.625 1.5 1.625 1.5 3 3 C3.33 2.34 3.66 1.68 4 1 C3.125 4.875 3.125 4.875 2 6 C-1.4375 6.1875 -1.4375 6.1875 -5 6 C-5.66 5.34 -6.32 4.68 -7 4 C-6.67 3.01 -6.34 2.02 -6 1 C-3.90006779 0.25486277 -2.22568901 0 0 0 Z " fill="#4B535A" transform="translate(138,332)"/>
<path d="M0 0 C2 0 2 0 3.9375 1.8125 C4.618125 2.534375 5.29875 3.25625 6 4 C6.86625 4.804375 6.86625 4.804375 7.75 5.625 C9 7 9 7 9 9 C7.35 9.33 5.7 9.66 4 10 C3.9175 9.21625 3.835 8.4325 3.75 7.625 C3.27193661 4.85250896 3.27193661 4.85250896 0.9375 3.6875 C0.298125 3.460625 -0.34125 3.23375 -1 3 C-0.67 2.01 -0.34 1.02 0 0 Z M-2 4 C-1.01 4.495 -1.01 4.495 0 5 C-0.66 5.66 -1.32 6.32 -2 7 C-2 6.01 -2 5.02 -2 4 Z " fill="#364149" transform="translate(207,131)"/>
<path d="M0 0 C1.65 0.99 3.3 1.98 5 3 C5.33 2.67 5.66 2.34 6 2 C7.68608966 1.92794489 9.37500659 1.91613932 11.0625 1.9375 C11.98160156 1.94652344 12.90070313 1.95554687 13.84765625 1.96484375 C14.55792969 1.97644531 15.26820313 1.98804688 16 2 C16 2.66 16 3.32 16 4 C4.78301887 6.18867925 4.78301887 6.18867925 0 3 C0 2.01 0 1.02 0 0 Z " fill="#91ABA0" transform="translate(285,275)"/>
<path d="M0 0 C0.66 0.66 1.32 1.32 2 2 C3.31747324 2.69748583 4.64914193 3.36959957 6 4 C4.71034824 5.37562854 3.37310707 6.70766393 2 8 C1.34 8 0.68 8 0 8 C0 7.34 0 6.68 0 6 C-1.32 6.33 -2.64 6.66 -4 7 C-4 6.34 -4 5.68 -4 5 C-3.34 5 -2.68 5 -2 5 C-1.7834375 4.0409375 -1.7834375 4.0409375 -1.5625 3.0625 C-1 1 -1 1 0 0 Z " fill="#4F585F" transform="translate(160,183)"/>
<path d="M0 0 C1.65 0.33 3.3 0.66 5 1 C3.38405168 3.04119788 1.7143618 5.04072937 0 7 C-0.66 7 -1.32 7 -2 7 C-2.33 7.66 -2.66 8.32 -3 9 C-3 7.02 -3 5.04 -3 3 C-2.34 3 -1.68 3 -1 3 C-0.67 2.01 -0.34 1.02 0 0 Z " fill="#5F666E" transform="translate(258,241)"/>
<path d="M0 0 C2.33294775 -0.04241723 4.66702567 -0.04092937 7 0 C8.81115956 1.81115956 8.38199448 4.61278227 8.5625 7.0625 C8.64628906 8.16722656 8.73007812 9.27195312 8.81640625 10.41015625 C8.87699219 11.26480469 8.93757813 12.11945313 9 13 C7 12 7 12 5 9 C5 6.37886292 5.31292445 4.49064888 6 2 C3.03 1.505 3.03 1.505 0 1 C0 0.67 0 0.34 0 0 Z " fill="#88A799" transform="translate(293,263)"/>
<path d="M0 0 C1.32 0.99 2.64 1.98 4 3 C2.125 7.75 2.125 7.75 1 10 C0.34 10 -0.32 10 -1 10 C-1 2 -1 2 0 0 Z " fill="#689580" transform="translate(188,210)"/>
<path d="M0 0 C2.475 0.99 2.475 0.99 5 2 C4.34 3.65 3.68 5.3 3 7 C1.68 7 0.36 7 -1 7 C-0.7525 6.1028125 -0.7525 6.1028125 -0.5 5.1875 C0.1114124 2.88655664 0.1114124 2.88655664 0 0 Z " fill="#6A9581" transform="translate(232,212)"/>
<path d="M0 0 C0.66 0 1.32 0 2 0 C2 3.63 2 7.26 2 11 C1.34 11 0.68 11 0 11 C-2.21538462 4.6 -2.21538462 4.6 -1.125 1.5625 C-0.75375 1.046875 -0.3825 0.53125 0 0 Z " fill="#292E38" transform="translate(212,291)"/>
<path d="M0 0 C1.125 1.75 1.125 1.75 2 4 C1.15177325 7.11016477 0.07837944 7.94774704 -2.625 9.75 C-3.800625 10.36875 -3.800625 10.36875 -5 11 C-3.77472971 6.94718288 -2.30119506 3.55639236 0 0 Z " fill="#8BAFA0" transform="translate(169,225)"/>
<path d="M0 0 C0 0.99 0 1.98 0 3 C-1.77049689 3.05410687 -3.54146849 3.09284119 -5.3125 3.125 C-6.79169922 3.15980469 -6.79169922 3.15980469 -8.30078125 3.1953125 C-11 3 -11 3 -14 1 C-12.04175306 0.83232136 -10.08339945 0.66588795 -8.125 0.5 C-6.48917969 0.36078125 -6.48917969 0.36078125 -4.8203125 0.21875 C-3.21670436 0.09437042 -1.60842449 0 0 0 Z " fill="#98BAAA" transform="translate(322,299)"/>
<path d="M0 0 C8.35010941 0.35010941 8.35010941 0.35010941 11.0625 3.0625 C11.371875 3.701875 11.68125 4.34125 12 5 C3.42857143 4.14285714 3.42857143 4.14285714 0 2 C0 1.34 0 0.68 0 0 Z " fill="#8BA79A" transform="translate(184,293)"/>
<path d="M0 0 C0.66 0 1.32 0 2 0 C3.2077558 3.62326739 2.54311128 4.64146369 1 8 C-0.32 7.67 -1.64 7.34 -3 7 C-2.42655063 4.13275314 -2.1385485 3.1385485 0 1 C0 0.67 0 0.34 0 0 Z " fill="#689882" transform="translate(227,209)"/>
<path d="M0 0 C0.66 0.33 1.32 0.66 2 1 C2.59355614 3.64860427 2.74209269 6.29197322 3 9 C2.01 9 1.02 9 0 9 C-1.125 2.25 -1.125 2.25 0 0 Z " fill="#6B9782" transform="translate(171,232)"/>
<path d="M0 0 C2.0625 0.4375 2.0625 0.4375 4 1 C3.0479279 2.00596297 2.08812654 3.00461563 1.125 4 C0.59132813 4.556875 0.05765625 5.11375 -0.4921875 5.6875 C-2 7 -2 7 -4 7 C-4 6.01 -4 5.02 -4 4 C-3.34 4 -2.68 4 -2 4 C-1.67 3.01 -1.34 2.02 -1 1 C-0.67 0.67 -0.34 0.34 0 0 Z " fill="#696E73" transform="translate(285,218)"/>
<path d="M0 0 C0.8125 1.6875 0.8125 1.6875 1 4 C-1.3125 6.75 -1.3125 6.75 -4 9 C-4.66 9 -5.32 9 -6 9 C-5.52797514 4.75177626 -3.03344482 2.80010291 0 0 Z " fill="#33383E" transform="translate(146,187)"/>
<path d="M0 0 C0.66 0.66 1.32 1.32 2 2 C1.625 5.125 1.625 5.125 1 8 C0.01 8.33 -0.98 8.66 -2 9 C-1.125 2.25 -1.125 2.25 0 0 Z " fill="#84A593" transform="translate(248,227)"/>
<path d="M0 0 C0.66 1.32 1.32 2.64 2 4 C0.68 4.99 -0.64 5.98 -2 7 C-2.99 5.35 -3.98 3.7 -5 2 C-2 0 -2 0 0 0 Z " fill="#89AF9D" transform="translate(242,227)"/>
<path d="M0 0 C-0.33 1.98 -0.66 3.96 -1 6 C-6.75 4.25 -6.75 4.25 -9 2 C-6.525 2.495 -6.525 2.495 -4 3 C-4 2.34 -4 1.68 -4 1 C-2 0 -2 0 0 0 Z " fill="#87AC9C" transform="translate(225,212)"/>
<path d="M0 0 C-1.23789629 3.71368887 -2.85224877 4.77354181 -6 7 C-6.66 7 -7.32 7 -8 7 C-6.13932792 2.84926997 -4.83061881 0 0 0 Z " fill="#30373F" transform="translate(157,193)"/>
<path d="M0 0 C1.98 0 3.96 0 6 0 C5.67 1.32 5.34 2.64 5 4 C3.35 4 1.7 4 0 4 C0 2.68 0 1.36 0 0 Z M-2 4 C0 5 0 5 0 5 Z " fill="#384049" transform="translate(262,172)"/>
<path d="M0 0 C0.99 0.33 1.98 0.66 3 1 C1.35 2.98 -0.3 4.96 -2 7 C-3.32 6.67 -4.64 6.34 -6 6 C-4.02 4.02 -2.04 2.04 0 0 Z " fill="#555A5F" transform="translate(204,133)"/>
<path d="M0 0 C0.99 0.66 1.98 1.32 3 2 C1.8125 3.5 1.8125 3.5 0 5 C-2.6875 5.1875 -2.6875 5.1875 -5 5 C-3.35 3.35 -1.7 1.7 0 0 Z " fill="#363F4C" transform="translate(278,224)"/>
<path d="M0 0 C0.99 0.33 1.98 0.66 3 1 C3.33 2.98 3.66 4.96 4 7 C3.01 7 2.02 7 1 7 C0.67 4.69 0.34 2.38 0 0 Z " fill="#3E4149" transform="translate(280,184)"/>
<path d="M0 0 C-0.9590625 0.556875 -0.9590625 0.556875 -1.9375 1.125 C-4.63858072 3.58052793 -4.68407005 5.44578805 -5 9 C-5.33 9 -5.66 9 -6 9 C-6 6.03 -6 3.06 -6 0 C-3.50907189 -1.24546405 -2.58919267 -0.7767578 0 0 Z " fill="#6A8F7F" transform="translate(314,287)"/>
<path d="M0 0 C0.66 0 1.32 0 2 0 C1.67 3.3 1.34 6.6 1 10 C-0.87376865 6.2524627 -1.3214079 4.96403081 -1 1 C-0.67 0.67 -0.34 0.34 0 0 Z " fill="#76858B" transform="translate(202,262)"/>
<path d="M0 0 C1.65 0 3.3 0 5 0 C3.35 1.98 1.7 3.96 0 6 C-1.125 2.25 -1.125 2.25 0 0 Z " fill="#545761" transform="translate(272,229)"/>
<path d="M0 0 C1.98 0.99 1.98 0.99 4 2 C4 2.66 4 3.32 4 4 C5.98 4 7.96 4 10 4 C10 4.33 10 4.66 10 5 C3.375 5.25 3.375 5.25 0 3 C0 2.01 0 1.02 0 0 Z " fill="#B9CDC3" transform="translate(285,275)"/>
<path d="M0 0 C0.99 0 1.98 0 3 0 C3 1.98 3 3.96 3 6 C1.35 4.68 -0.3 3.36 -2 2 C-1.34 1.34 -0.68 0.68 0 0 Z " fill="#759E8C" transform="translate(174,219)"/>
<path d="M0 0 C0.66 0.66 1.32 1.32 2 2 C1.67 2.99 1.34 3.98 1 5 C1.66 5.33 2.32 5.66 3 6 C2.01 6.66 1.02 7.32 0 8 C-0.66 7.67 -1.32 7.34 -2 7 C-1.34 4.69 -0.68 2.38 0 0 Z " fill="#4C555E" transform="translate(210,136)"/>
<path d="M0 0 C0 0.33 0 0.66 0 1 C-1.65 1.33 -3.3 1.66 -5 2 C-5.33 3.32 -5.66 4.64 -6 6 C-6.99 5.01 -7.98 4.02 -9 3 C-6.38997624 -0.48003168 -4.1689578 -0.27793052 0 0 Z " fill="#7A8189" transform="translate(217,128)"/>
<path d="M0 0 C1.67542976 0.28604898 3.34385343 0.61781233 5 1 C4.01 2.485 4.01 2.485 3 4 C2.01 4 1.02 4 0 4 C-0.33 3.01 -0.66 2.02 -1 1 C-0.67 0.67 -0.34 0.34 0 0 Z " fill="#323B44" transform="translate(210,275)"/>
<path d="M0 0 C3.465 1.485 3.465 1.485 7 3 C4.33333333 3.66666667 1.66666667 4.33333333 -1 5 C-0.67 3.35 -0.34 1.7 0 0 Z " fill="#95B4A7" transform="translate(229,209)"/>
<path d="M0 0 C1.32 0.66 2.64 1.32 4 2 C3.67 3.32 3.34 4.64 3 6 C3.66 6.33 4.32 6.66 5 7 C4.01 7 3.02 7 2 7 C2 5.68 2 4.36 2 3 C1.01 2.67 0.02 2.34 -1 2 C-0.67 1.34 -0.34 0.68 0 0 Z " fill="#3A434B" transform="translate(250,168)"/>
</svg>
